<?xml version="1.0" encoding="UTF-8" standalone="no"?>
<!-- Created with Inkscape (http://www.inkscape.org/) -->

<svg
   xmlns:dc="http://purl.org/dc/elements/1.1/"
   xmlns:cc="http://creativecommons.org/ns#"
   xmlns:rdf="http://www.w3.org/1999/02/22-rdf-syntax-ns#"
   xmlns:svg="http://www.w3.org/2000/svg"
   xmlns="http://www.w3.org/2000/svg"
   xmlns:sodipodi="http://sodipodi.sourceforge.net/DTD/sodipodi-0.dtd"
   xmlns:inkscape="http://www.inkscape.org/namespaces/inkscape"
   width="220"
   height="250"
   id="svg3045"
   version="1.1"
   inkscape:version="0.91 r13725"
   sodipodi:docname="software-recommendations-on-wordpress.svg"
   inkscape:export-filename="/home/nico/src/StackExchange-Community-Ads/Software_Recommendations_2014/software-recommendations-on-wordpress.png"
   inkscape:export-xdpi="90"
   inkscape:export-ydpi="90">
  <defs
     id="defs3047" />
  <sodipodi:namedview
     id="base"
     pagecolor="#ebe5f8"
     bordercolor="#666666"
     borderopacity="1.0"
     inkscape:pageopacity="0.18431373"
     inkscape:pageshadow="2"
     inkscape:zoom="1.7447717"
     inkscape:cx="-60.387678"
     inkscape:cy="196.5494"
     inkscape:document-units="px"
     inkscape:current-layer="layer1"
     showgrid="false"
     inkscape:window-width="1855"
     inkscape:window-height="1056"
     inkscape:window-x="65"
     inkscape:window-y="24"
     inkscape:window-maximized="1" />
  <metadata
     id="metadata3050">
    <rdf:RDF>
      <cc:Work
         rdf:about="">
        <dc:format>image/svg+xml</dc:format>
        <dc:type
           rdf:resource="http://purl.org/dc/dcmitype/StillImage" />
        <dc:title />
      </cc:Work>
    </rdf:RDF>
  </metadata>
  <g
     inkscape:label="Layer 1"
     inkscape:groupmode="layer"
     id="layer1"
     transform="translate(0,-802.36218)">
    <path
       sodipodi:type="star"
       style="fill:#1d0036;fill-opacity:1;stroke:none"
       id="path3089"
       sodipodi:sides="7"
       sodipodi:cx="117.32197"
       sodipodi:cy="19.975035"
       sodipodi:r1="18.705423"
       sodipodi:r2="13.79481"
       sodipodi:arg1="0.35299039"
       sodipodi:arg2="0.50888411"
       inkscape:flatsided="false"
       inkscape:rounded="0"
       inkscape:randomized="0"
       d="m 134.87407,26.4416 -5.50525,0.254308 -6.15906,11.033753 -3.63129,-4.145622 -12.46665,2.064087 0.9771,-5.423814 -9.38659,-8.459878 4.84972,-2.617764 0.76176,-12.6133822 5.0704,2.1595156 10.33648,-7.2687521 1.47297,5.3106359 12.12763,3.5493968 -3.23364,4.462739 z"
       transform="matrix(0.84883896,0.78283085,-0.78283085,0.84883896,108.45412,852.6651)"
       inkscape:transform-center-x="-0.11554527"
       inkscape:transform-center-y="-0.95654054" />
    <path
       inkscape:connector-curvature="0"
       style="fill:#999999;fill-rule:evenodd;stroke:#000000;stroke-width:0.49759495px;stroke-linecap:butt;stroke-linejoin:miter;stroke-opacity:1"
       d="m 157.13333,934.28935 c -17.59076,-6.84204 -26.2161,7.82201 -27.58675,19.84473 -3.1878,3.88919 -4.98139,4.84083 -7.36917,5.97381 -6.76785,1.53706 -35.434583,7.51892 -78.15217,20.8375 -2.566406,0.80017 -9.348861,3.60891 -11.977516,1.77036 -11.025774,-7.71149 -16.229727,-5.8618 -20.090569,-2.31861 -0.445439,0.40879 -10.430098,8.97602 -8.3139581,18.37284 0.4557317,2.02372 10.8628311,-6.87211 12.9630601,-7.12847 6.346779,-0.7747 12.071686,14.14519 9.843231,16.48679 -2.485473,2.6117 -12.754985,8.524 -11.538365,8.9967 4.478795,1.7405 21.199096,1.9332 22.964031,-6.0934 2.489531,-11.32166 9.479979,-12.87059 10.058411,-13.0503 18.814896,-5.84516 60.065105,-17.32716 78.939605,-22.48418 4.51406,-1.23335 9.38785,-1.20347 12.57152,0.17308 15.51443,11.93225 26.8631,-4.87039 25.12925,-5.83725 -5.03126,1.59752 -8.96653,3.2475 -12.57412,4.14868 0.069,-2.75381 0.0493,-4.77355 -0.0266,-6.68506 -3.52149,-1.98186 -9.22959,-6.01143 -11.73417,-7.68337 -0.4818,-0.32163 -0.4826,-0.58525 0.0848,-1.04314 2.96791,-2.39532 4.58245,-2.88019 4.6348,-4.11534 0.10644,-2.5108 -0.97306,-9.69309 -1.20064,-13.36474 -0.0853,-1.37663 1.56663,-0.30242 2.50487,-0.12446 2.49923,0.47402 3.5363,1.40373 4.23892,0.57881 1.1784,-1.38352 3.67105,-3.59399 6.48812,-6.75837 z"
       id="path1932"
       sodipodi:nodetypes="cccssssssssssccccsssssscc" />
    <text
       xml:space="preserve"
       style="font-style:normal;font-weight:normal;font-size:4px;line-height:125%;font-family:Sans;letter-spacing:0px;word-spacing:0px;fill:#000000;fill-opacity:1;stroke:none"
       x="5.7314162"
       y="827.11786"
       id="text3091"
       sodipodi:linespacing="125%"><tspan
         sodipodi:role="line"
         x="5.7314162"
         y="827.11786"
         style="font-style:normal;font-variant:normal;font-weight:normal;font-stretch:normal;font-size:25px;font-family:Ubuntu;-inkscape-font-specification:Ubuntu;fill:#1d0036;fill-opacity:1"
         id="tspan4155">Looking for a</tspan><tspan
         sodipodi:role="line"
         x="5.7314162"
         y="858.36786"
         style="font-style:normal;font-variant:normal;font-weight:normal;font-stretch:normal;font-size:25px;font-family:Ubuntu;-inkscape-font-specification:Ubuntu;fill:#1d0036;fill-opacity:1"
         id="tspan4157">WordPress plugin</tspan><tspan
         sodipodi:role="line"
         x="5.7314162"
         y="889.61786"
         style="font-style:normal;font-variant:normal;font-weight:normal;font-stretch:normal;font-size:25px;font-family:Ubuntu;-inkscape-font-specification:Ubuntu;fill:#1d0036;fill-opacity:1"
         id="tspan4161">that fits your</tspan><tspan
         sodipodi:role="line"
         x="5.7314162"
         y="920.86786"
         style="font-style:normal;font-variant:normal;font-weight:normal;font-stretch:normal;font-size:25px;font-family:Ubuntu;-inkscape-font-specification:Ubuntu;fill:#1d0036;fill-opacity:1"
         id="tspan4163">very specific</tspan><tspan
         sodipodi:role="line"
         x="5.7314162"
         y="952.11786"
         style="font-style:normal;font-variant:normal;font-weight:normal;font-stretch:normal;font-size:25px;font-family:Ubuntu;-inkscape-font-specification:Ubuntu;fill:#1d0036;fill-opacity:1"
         id="tspan4179">needs?</tspan></text>
    <text
       xml:space="preserve"
       style="font-size:4px;font-style:normal;font-weight:normal;line-height:125%;letter-spacing:0px;word-spacing:0px;fill:#000000;fill-opacity:1;stroke:none;font-family:Sans"
       x="213.22952"
       y="1015.108"
       id="text3101"
       sodipodi:linespacing="125%"><tspan
         sodipodi:role="line"
         id="tspan3103"
         x="213.22952"
         y="1015.108"
         style="font-size:22px;text-align:end;text-anchor:end;-inkscape-font-specification:Ubuntu;font-family:Ubuntu;font-weight:normal;font-style:normal;font-stretch:normal;font-variant:normal;fill:#1d0036;fill-opacity:1">Software</tspan><tspan
         sodipodi:role="line"
         x="213.22952"
         y="1042.608"
         id="tspan3105"
         style="font-size:22px;text-align:end;text-anchor:end;-inkscape-font-specification:Ubuntu;font-family:Ubuntu;font-weight:normal;font-style:normal;font-stretch:normal;font-variant:normal;fill:#1d0036;fill-opacity:1">Recommendations</tspan></text>
    <text
       xml:space="preserve"
       style="font-style:normal;font-weight:normal;font-size:4px;line-height:125%;font-family:Sans;letter-spacing:0px;word-spacing:0px;fill:#000000;fill-opacity:1;stroke:none"
       x="162.81432"
       y="925.29504"
       id="text3091-6"
       sodipodi:linespacing="125%"><tspan
         sodipodi:role="line"
         x="162.81432"
         y="925.29504"
         style="font-style:normal;font-variant:normal;font-weight:normal;font-stretch:normal;font-size:32px;font-family:Ubuntu;-inkscape-font-specification:Ubuntu;fill:#1d0036;fill-opacity:1"
         id="tspan3980" /></text>
  </g>
</svg>
