<?xml version="1.0" encoding="UTF-8" standalone="no"?>
<!-- Created with Inkscape (http://www.inkscape.org/) -->

<svg
   xmlns:dc="http://purl.org/dc/elements/1.1/"
   xmlns:cc="http://creativecommons.org/ns#"
   xmlns:rdf="http://www.w3.org/1999/02/22-rdf-syntax-ns#"
   xmlns:svg="http://www.w3.org/2000/svg"
   xmlns="http://www.w3.org/2000/svg"
   xmlns:xlink="http://www.w3.org/1999/xlink"
   xmlns:sodipodi="http://sodipodi.sourceforge.net/DTD/sodipodi-0.dtd"
   xmlns:inkscape="http://www.inkscape.org/namespaces/inkscape"
   width="220"
   height="250"
   id="svg2"
   version="1.1"
   inkscape:version="0.48.4 r9939"
   sodipodi:docname="software-recommendations-advertisement-2014.svg"
   inkscape:export-filename="/home/nico/Desktop/software-recommendations-advertisement-2014.png"
   inkscape:export-xdpi="90"
   inkscape:export-ydpi="90">
  <defs
     id="defs4">
    <linearGradient
       inkscape:collect="always"
       xlink:href="#linearGradient3072"
       id="linearGradient3078"
       x1="127.63248"
       y1="47.726524"
       x2="127.00219"
       y2="139.43282"
       gradientUnits="userSpaceOnUse"
       gradientTransform="matrix(0.76275956,0,0,0.76275956,10.529679,848.58818)" />
    <linearGradient
       id="linearGradient3072">
      <stop
         style="stop-color:#93aca7;stop-opacity:1"
         offset="0"
         id="stop3074" />
      <stop
         style="stop-color:#787885;stop-opacity:1;"
         offset="1"
         id="stop3076" />
    </linearGradient>
  </defs>
  <sodipodi:namedview
     id="base"
     pagecolor="#ffffff"
     bordercolor="#666666"
     borderopacity="1.0"
     inkscape:pageopacity="0.0"
     inkscape:pageshadow="2"
     inkscape:zoom="1.03"
     inkscape:cx="59.575074"
     inkscape:cy="122.31984"
     inkscape:document-units="px"
     inkscape:current-layer="layer1"
     showgrid="false"
     inkscape:window-width="1855"
     inkscape:window-height="1056"
     inkscape:window-x="65"
     inkscape:window-y="24"
     inkscape:window-maximized="1" />
  <metadata
     id="metadata7">
    <rdf:RDF>
      <cc:Work
         rdf:about="">
        <dc:format>image/svg+xml</dc:format>
        <dc:type
           rdf:resource="http://purl.org/dc/dcmitype/StillImage" />
        <dc:title></dc:title>
      </cc:Work>
    </rdf:RDF>
  </metadata>
  <g
     inkscape:label="Layer 1"
     inkscape:groupmode="layer"
     id="layer1"
     transform="translate(0,-802.36218)">
    <path
       style="fill:#d40000;stroke:#aa0000;stroke-width:0.76275957px;stroke-linecap:butt;stroke-linejoin:miter;stroke-opacity:1"
       d="m 163.40976,882.82865 c 0.72114,-4.80756 1.68265,-6.00944 4.3268,-5.52869 2.64415,0.48076 10.33623,5.28831 9.6151,-1.20189 -0.72113,-6.49019 1.20189,-13.94189 -6.4902,-10.81699 -7.69208,3.12491 -13.46114,3.36529 -14.18227,8.89397 -0.72113,5.52869 -1.44226,10.33624 -1.44226,10.33624 z"
       id="path3086"
       inkscape:connector-curvature="0" />
    <rect
       transform="matrix(0.99420413,-0.10750884,0.10750884,0.99420413,0,0)"
       ry="3.3652854"
       rx="3.3652854"
       y="879.52271"
       x="-24.660885"
       height="36.297005"
       width="56.488716"
       id="shopitem3"
       style="color:#000000;fill:#d35f5f;fill-opacity:1;fill-rule:nonzero;stroke:#a02c2c;stroke-width:0.76275957px;stroke-linecap:butt;stroke-linejoin:miter;stroke-miterlimit:4;stroke-opacity:1;stroke-dasharray:none;stroke-dashoffset:0;marker:none;visibility:visible;display:inline;overflow:visible;enable-background:accumulate" />
    <rect
       style="color:#000000;fill:#00aad4;fill-opacity:1;fill-rule:nonzero;stroke:#004455;stroke-width:0.76275957px;stroke-linecap:butt;stroke-linejoin:miter;stroke-miterlimit:4;stroke-opacity:1;stroke-dasharray:none;stroke-dashoffset:0;marker:none;visibility:visible;display:inline;overflow:visible;enable-background:accumulate"
       id="shopitem1"
       width="56.488716"
       height="36.297005"
       x="-168.9677"
       y="890.42261"
       rx="3.3652854"
       ry="3.3652854"
       transform="matrix(0.96763867,-0.25233985,0.25233985,0.96763867,0,0)"
       inkscape:label="#shopitem1" />
    <rect
       style="color:#000000;fill:#8dd35f;fill-opacity:1;fill-rule:nonzero;stroke:#217844;stroke-width:0.76275957px;stroke-linecap:butt;stroke-linejoin:miter;stroke-miterlimit:4;stroke-opacity:1;stroke-dasharray:none;stroke-dashoffset:0;marker:none;visibility:visible;display:inline;overflow:visible;enable-background:accumulate"
       id="rect3082"
       width="54.806072"
       height="33.412476"
       x="90.094627"
       y="899.89545"
       rx="3.3652854"
       ry="3.3652854" />
    <path
       style="fill:url(#linearGradient3078);fill-opacity:1;stroke:#556f6a;stroke-width:0.76275957px;stroke-linecap:butt;stroke-linejoin:miter;stroke-opacity:1"
       d="m 47.070629,881.38684 c 0,0 6.01778,48.78605 13.22911,55.27624 4.62337,8.46331 80.212561,1.3042 81.710611,2.16909 1.49804,0.8649 2.52397,9.01278 0,11.53674 -2.52397,2.52396 -77.634621,0 -77.634621,0 0,0 -2.52396,6.36696 0,8.89096 2.52397,2.5239 79.673691,1.8778 82.926271,0 3.25256,-1.8779 16.59002,-77.87303 16.59002,-77.87303 z m 21.83399,4.91027 c 1.56702,0.0489 2.94249,1.18093 3.21789,2.78884 l 6.69799,39.09143 c 0.31473,1.83761 -0.9274,3.57057 -2.76501,3.8853 l -6.62647,1.14414 c -1.83761,0.31474 -3.57057,-0.90355 -3.88531,-2.74116 l -6.69798,-39.09143 c -0.31474,-1.83762 0.90356,-3.57057 2.74117,-3.88531 l 6.6503,-1.14414 c 0.22971,-0.0394 0.44356,-0.0547 0.66742,-0.0477 z m 69.401041,2.27653 c 0.22397,-2.9e-4 0.46282,0.001 0.69125,0.0477 l 6.5788,1.33484 c 1.82737,0.36958 3.01541,2.15328 2.64582,3.98065 l -7.86596,38.8769 c -6.13865,1.58699 -2.12945,2.99157 -3.95681,2.62199 l -6.60264,-1.33484 c -1.82737,-0.36958 -3.01541,-2.12944 -2.64582,-3.95681 l 7.86595,-38.8769 c 0.32339,-1.59895 1.72162,-2.69148 3.28941,-2.6935 z m -43.657911,-1.29925 c 1.862746,-0.0778 3.426146,1.35515 3.503926,3.21789 l 1.66854,39.63967 c 0.0778,1.86274 -1.37898,3.42614 -3.24173,3.50393 l -6.721816,0.2622 c -1.86274,0.0778 -3.42614,-1.35516 -3.50393,-3.2179 l -1.64469,-39.61583 c -0.0778,-1.86274 1.35514,-3.42614 3.21788,-3.50393 z m 17.448121,0.0239 6.72182,0.23836 c 1.86316,0.0672 3.30896,1.61694 3.24173,3.48009 l -1.43017,39.63966 c -0.0673,1.86316 -1.61694,3.30898 -3.4801,3.24174 l -6.74565,-0.23837 c -1.86316,-0.0672 -3.30897,-1.61693 -3.24173,-3.48009 l 1.43017,-39.63967 c 0.0673,-1.86315 1.64078,-3.30896 3.50393,-3.24172 z"
       id="path3024"
       inkscape:connector-curvature="0"
       sodipodi:nodetypes="ccsscssccsccccccccssccccccccscccccccccccssccssc" />
    <path
       sodipodi:type="arc"
       style="color:#000000;fill:#6c5353;fill-opacity:1;fill-rule:nonzero;stroke:#484537;stroke-width:1px;stroke-linecap:butt;stroke-linejoin:miter;stroke-miterlimit:4;stroke-opacity:1;stroke-dasharray:none;stroke-dashoffset:0;marker:none;visibility:visible;display:inline;overflow:visible;enable-background:accumulate"
       id="path3028"
       sodipodi:cx="39.707882"
       sodipodi:cy="199.30978"
       sodipodi:rx="14.496528"
       sodipodi:ry="14.496528"
       d="m 54.20441,199.30978 a 14.496528,14.496528 0 1 1 -28.993056,0 14.496528,14.496528 0 1 1 28.993056,0 z"
       transform="matrix(0.76275956,0,0,0.76275956,41.778749,822.86778)" />
    <path
       transform="matrix(0.76275956,0,0,0.76275956,107.40181,822.86778)"
       d="m 54.20441,199.30978 a 14.496528,14.496528 0 1 1 -28.993056,0 14.496528,14.496528 0 1 1 28.993056,0 z"
       sodipodi:ry="14.496528"
       sodipodi:rx="14.496528"
       sodipodi:cy="199.30978"
       sodipodi:cx="39.707882"
       id="path3056"
       style="color:#000000;fill:#6c5353;fill-opacity:1;fill-rule:nonzero;stroke:#484537;stroke-width:1px;stroke-linecap:butt;stroke-linejoin:miter;stroke-miterlimit:4;stroke-opacity:1;stroke-dasharray:none;stroke-dashoffset:0;marker:none;visibility:visible;display:inline;overflow:visible;enable-background:accumulate"
       sodipodi:type="arc" />
    <text
       xml:space="preserve"
       style="font-size:4px;font-style:normal;font-weight:normal;line-height:125%;letter-spacing:0px;word-spacing:0px;fill:#000000;fill-opacity:1;stroke:none;font-family:Sans"
       x="9.8636017"
       y="842.85297"
       id="text3132"
       sodipodi:linespacing="125%"><tspan
         sodipodi:role="line"
         id="tspan3134"
         x="9.8636017"
         y="842.85297"
         style="font-size:36px;font-style:normal;font-variant:normal;font-weight:bold;font-stretch:normal;fill:#2a0052;fill-opacity:1;font-family:Purisa;-inkscape-font-specification:Purisa Bold">Shopping?</tspan></text>
    <text
       xml:space="preserve"
       style="font-size:4px;font-style:normal;font-weight:normal;line-height:125%;letter-spacing:0px;word-spacing:0px;fill:#000000;fill-opacity:1;stroke:none;font-family:Sans"
       x="5.9102149"
       y="1005.4297"
       id="text3904"
       sodipodi:linespacing="125%"><tspan
         sodipodi:role="line"
         id="tspan3906"
         x="5.9102149"
         y="1005.4297"
         style="font-size:14px;font-style:normal;font-variant:normal;font-weight:bold;font-stretch:normal;fill:#1d0036;fill-opacity:1;font-family:Purisa;-inkscape-font-specification:Purisa Bold">There's a Site for That</tspan></text>
    <text
       xml:space="preserve"
       style="font-size:4px;font-style:normal;font-variant:normal;font-weight:bold;font-stretch:normal;line-height:125%;letter-spacing:0px;word-spacing:0px;fill:#000000;fill-opacity:1;stroke:none;font-family:cmsy10;-inkscape-font-specification:cmsy10 Bold"
       x="70.640541"
       y="1047.8083"
       id="text3908"
       sodipodi:linespacing="125%"><tspan
         sodipodi:role="line"
         x="70.640541"
         y="1047.8083"
         id="tspan3912"
         style="font-size:16px;font-style:normal;font-variant:normal;font-weight:bold;font-stretch:normal;fill:#1d0036;fill-opacity:1;font-family:Bitstream Charter;-inkscape-font-specification:Bitstream Charter Bold">.stackexchange.com</tspan></text>
    <flowRoot
       xml:space="preserve"
       id="flowRoot3933"
       style="fill:black;stroke:none;stroke-opacity:1;stroke-width:1px;stroke-linejoin:miter;stroke-linecap:butt;fill-opacity:1;font-family:Sans;font-style:normal;font-weight:normal;font-size:4px;line-height:125%;letter-spacing:0px;word-spacing:0px"><flowRegion
         id="flowRegion3935"><rect
           id="rect3937"
           width="3.9368482"
           height="27.164251"
           x="5.5115871"
           y="122.05244" /></flowRegion><flowPara
         id="flowPara3939"></flowPara></flowRoot>    <text
       xml:space="preserve"
       style="font-size:4px;font-style:normal;font-variant:normal;font-weight:bold;font-stretch:normal;line-height:125%;letter-spacing:0px;word-spacing:0px;fill:#000000;fill-opacity:1;stroke:none;font-family:cmsy10;-inkscape-font-specification:cmsy10 Bold"
       x="0.91195071"
       y="1033.5786"
       id="text3908-2"
       sodipodi:linespacing="125%"><tspan
         sodipodi:role="line"
         x="0.91195071"
         y="1033.5786"
         id="tspan3912-5"
         style="font-size:16px;font-style:normal;font-variant:normal;font-weight:bold;font-stretch:normal;fill:#1d0036;fill-opacity:1;font-family:Bitstream Charter;-inkscape-font-specification:Bitstream Charter Bold">SoftwareRecommendations</tspan></text>
  </g>
</svg>
