<?xml version="1.0" encoding="UTF-8" standalone="no"?>
<!-- Created with Inkscape (http://www.inkscape.org/) -->

<svg
   xmlns:dc="http://purl.org/dc/elements/1.1/"
   xmlns:cc="http://creativecommons.org/ns#"
   xmlns:rdf="http://www.w3.org/1999/02/22-rdf-syntax-ns#"
   xmlns:svg="http://www.w3.org/2000/svg"
   xmlns="http://www.w3.org/2000/svg"
   xmlns:sodipodi="http://sodipodi.sourceforge.net/DTD/sodipodi-0.dtd"
   xmlns:inkscape="http://www.inkscape.org/namespaces/inkscape"
   width="220"
   height="250"
   id="svg3045"
   version="1.1"
   inkscape:version="0.48.4 r9939"
   sodipodi:docname="software-recommendations-advertisement-2014c.svg"
   inkscape:export-filename="/home/nico/Desktop/software-recommendations-advertisement-2014c.png"
   inkscape:export-xdpi="90"
   inkscape:export-ydpi="90">
  <defs
     id="defs3047" />
  <sodipodi:namedview
     id="base"
     pagecolor="#ebe5f8"
     bordercolor="#666666"
     borderopacity="1.0"
     inkscape:pageopacity="0.18431373"
     inkscape:pageshadow="2"
     inkscape:zoom="1.7447717"
     inkscape:cx="35.899991"
     inkscape:cy="196.5494"
     inkscape:document-units="px"
     inkscape:current-layer="layer1"
     showgrid="false"
     inkscape:window-width="1855"
     inkscape:window-height="1056"
     inkscape:window-x="65"
     inkscape:window-y="24"
     inkscape:window-maximized="1" />
  <metadata
     id="metadata3050">
    <rdf:RDF>
      <cc:Work
         rdf:about="">
        <dc:format>image/svg+xml</dc:format>
        <dc:type
           rdf:resource="http://purl.org/dc/dcmitype/StillImage" />
        <dc:title></dc:title>
      </cc:Work>
    </rdf:RDF>
  </metadata>
  <g
     inkscape:label="Layer 1"
     inkscape:groupmode="layer"
     id="layer1"
     transform="translate(0,-802.36218)">
    <path
       sodipodi:type="star"
       style="fill:#1d0036;fill-opacity:1;stroke:none"
       id="path3089"
       sodipodi:sides="7"
       sodipodi:cx="117.32197"
       sodipodi:cy="19.975035"
       sodipodi:r1="18.705423"
       sodipodi:r2="13.79481"
       sodipodi:arg1="0.35299039"
       sodipodi:arg2="0.50888411"
       inkscape:flatsided="false"
       inkscape:rounded="0"
       inkscape:randomized="0"
       d="m 134.87407,26.4416 -5.50525,0.254308 -6.15906,11.033753 -3.63129,-4.145622 -12.46665,2.064087 0.9771,-5.423814 -9.38659,-8.459878 4.84972,-2.617764 0.76176,-12.6133822 5.0704,2.1595156 10.33648,-7.2687521 1.47297,5.3106359 12.12763,3.5493968 -3.23364,4.462739 z"
       transform="matrix(1.1547085,0,0,1.1547085,47.188431,812.88073)"
       inkscape:transform-center-x="0.61633802"
       inkscape:transform-center-y="-0.45978005" />
    <path
       inkscape:connector-curvature="0"
       style="fill:#999999;fill-rule:evenodd;stroke:#000000;stroke-width:0.49759495px;stroke-linecap:butt;stroke-linejoin:miter;stroke-opacity:1"
       d="m 166.39385,824.40691 c -17.56971,6.89594 -13.96885,23.52317 -6.82566,33.29043 0.29328,5.02015 -0.38005,6.93566 -1.36723,9.38732 -3.93308,5.71815 -20.95092,29.54999 -43.32379,68.30088 -1.34412,2.3281 -4.4258,8.99098 -7.6046,9.42152 -13.333146,1.80609 -15.904637,6.69382 -16.340693,11.9159 -0.05031,0.60249 -1.582012,13.6694 6.344144,19.14251 1.706997,1.17867 3.326449,-12.41617 4.696549,-14.0285 4.14038,-4.87226 18.46369,2.21431 18.41307,5.44649 -0.0565,3.60495 -3.59749,14.91329 -2.38266,14.43606 4.4724,-1.75691 16.89425,-12.95082 12.75004,-20.04787 -5.8454,-10.01043 -1.75674,-15.88821 -1.45336,-16.41246 9.86832,-17.05235 32.40761,-53.45833 42.78628,-70.04521 2.48219,-3.96695 6.08523,-7.24915 9.3588,-8.3956 19.49426,-1.74642 16.4455,-21.79202 14.51545,-21.32732 -2.61551,4.58529 -4.38977,8.46612 -6.43079,11.57434 -1.81621,-2.07115 -3.19996,-3.54253 -4.55168,-4.89623 -3.93228,0.9305 -10.8602,1.8381 -13.83483,2.30701 -0.57223,0.0902 -0.75153,-0.10304 -0.64489,-0.82428 0.55784,-3.77291 1.41599,-5.22391 0.61711,-6.16738 -1.62395,-1.91787 -7.2867,-6.46581 -9.94319,-9.01059 -0.99602,-0.95413 0.94662,-1.28441 1.75698,-1.78966 2.15859,-1.34585 3.55123,-1.36553 3.50848,-2.44828 -0.0717,-1.81593 0.26209,-5.13075 0.18767,-9.36675 z"
       id="path1932"
       sodipodi:nodetypes="cccssssssssssccccsssssscc" />
    <text
       xml:space="preserve"
       style="font-size:4px;font-style:normal;font-weight:normal;line-height:125%;letter-spacing:0px;word-spacing:0px;fill:#000000;fill-opacity:1;stroke:none;font-family:Sans"
       x="5.1582675"
       y="835.71497"
       id="text3091"
       sodipodi:linespacing="125%"><tspan
         sodipodi:role="line"
         id="tspan3093"
         x="5.1582675"
         y="835.71497"
         style="font-size:36px;font-style:normal;font-variant:normal;font-weight:normal;font-stretch:normal;fill:#1d0036;fill-opacity:1;font-family:Ubuntu;-inkscape-font-specification:Ubuntu">Know</tspan><tspan
         sodipodi:role="line"
         x="5.1582675"
         y="880.71497"
         style="font-size:36px;font-style:normal;font-variant:normal;font-weight:normal;font-stretch:normal;fill:#1d0036;fill-opacity:1;font-family:Ubuntu;-inkscape-font-specification:Ubuntu"
         id="tspan3095">a tool</tspan><tspan
         sodipodi:role="line"
         x="5.1582675"
         y="925.71497"
         style="font-size:36px;font-style:normal;font-variant:normal;font-weight:normal;font-stretch:normal;fill:#1d0036;fill-opacity:1;font-family:Ubuntu;-inkscape-font-specification:Ubuntu"
         id="tspan3097">that</tspan><tspan
         sodipodi:role="line"
         x="5.1582675"
         y="970.71497"
         style="font-size:36px;font-style:normal;font-variant:normal;font-weight:normal;font-stretch:normal;fill:#1d0036;fill-opacity:1;font-family:Ubuntu;-inkscape-font-specification:Ubuntu"
         id="tspan3099">fits?</tspan></text>
    <text
       xml:space="preserve"
       style="font-size:4px;font-style:normal;font-weight:normal;line-height:125%;letter-spacing:0px;word-spacing:0px;fill:#000000;fill-opacity:1;stroke:none;font-family:Sans"
       x="213.22952"
       y="1015.108"
       id="text3101"
       sodipodi:linespacing="125%"><tspan
         sodipodi:role="line"
         id="tspan3103"
         x="213.22952"
         y="1015.108"
         style="font-size:22px;text-align:end;text-anchor:end;-inkscape-font-specification:Ubuntu;font-family:Ubuntu;font-weight:normal;font-style:normal;font-stretch:normal;font-variant:normal;fill:#1d0036;fill-opacity:1">Software</tspan><tspan
         sodipodi:role="line"
         x="213.22952"
         y="1042.608"
         id="tspan3105"
         style="font-size:22px;text-align:end;text-anchor:end;-inkscape-font-specification:Ubuntu;font-family:Ubuntu;font-weight:normal;font-style:normal;font-stretch:normal;font-variant:normal;fill:#1d0036;fill-opacity:1">Recommendations</tspan></text>
  </g>
</svg>
